SourceSansPro_0.ufo
<glyph name="Chook" format="1">
  <advance width="562"/>
  <outline>
    <contour>
      <point x="472" y="598" type="curve"/>
      <point x="502" y="594" type="line"/>
      <point x="471.915524753" y="640.283808073"/>
      <point x="468.0" y="665.826086957"/>
      <point x="468" y="706" type="curve" smooth="yes"/>
      <point x="468" y="735"/>
      <point x="486" y="764"/>
      <point x="524" y="764" type="curve" smooth="yes"/>
      <point x="540" y="764"/>
      <point x="551" y="758"/>
      <point x="562" y="754" type="curve"/>
      <point x="570" y="780" type="line"/>
      <point x="557" y="786"/>
      <point x="542" y="792"/>
      <point x="526" y="792" type="curve" smooth="yes"/>
      <point x="478" y="792"/>
      <point x="438" y="763"/>
      <point x="438" y="710" type="curve" smooth="yes"/>
      <point x="438.0" y="669.826086957"/>
      <point x="441.915524753" y="644.283808073"/>
    </contour>
    <component base="C"/>
  </outline>
</glyph>
<glyph name="Eopen" format="1">
  <advance width="546"/>
  <outline>
    <contour>
      <point x="266" y="-12" type="curve" smooth="yes"/>
      <point x="368" y="-12"/>
      <point x="434" y="19"/>
      <point x="498" y="88" type="curve"/>
      <point x="476" y="110" type="line"/>
      <point x="411" y="42"/>
      <point x="356" y="18"/>
      <point x="266" y="18" type="curve" smooth="yes"/>
      <point x="166" y="18"/>
      <point x="78" y="75"/>
      <point x="78" y="180" type="curve" smooth="yes"/>
      <point x="78" y="287"/>
      <point x="164" y="338"/>
      <point x="302" y="338" type="curve" smooth="yes"/>
      <point x="366" y="338" type="line"/>
      <point x="366" y="366" type="line"/>
      <point x="322" y="366" type="line" smooth="yes"/>
      <point x="177" y="366"/>
      <point x="114" y="415"/>
      <point x="114" y="510" type="curve" smooth="yes"/>
      <point x="114" y="594"/>
      <point x="182" y="642"/>
      <point x="272" y="642" type="curve" smooth="yes"/>
      <point x="340" y="642"/>
      <point x="404" y="614"/>
      <point x="442" y="572" type="curve"/>
      <point x="462" y="594" type="line"/>
      <point x="424" y="636"/>
      <point x="352" y="672"/>
      <point x="272" y="672" type="curve" smooth="yes"/>
      <point x="170" y="672"/>
      <point x="82" y="612"/>
      <point x="82" y="510" type="curve" smooth="yes"/>
      <point x="82" y="435"/>
      <point x="122" y="376"/>
      <point x="192" y="356" type="curve"/>
      <point x="192" y="352" type="line"/>
      <point x="108" y="338"/>
      <point x="46" y="280"/>
      <point x="46" y="182" type="curve" smooth="yes"/>
      <point x="46" y="62"/>
      <point x="146" y="-12"/>
    </contour>
  </outline>
</glyph>
<glyph name="Eturned.sc" format="1">
  <advance width="456"/>
  <outline>
    <contour>
      <point x="356" y="0" type="line"/>
      <point x="356" y="510" type="line"/>
      <point x="56" y="510" type="line"/>
      <point x="56" y="482" type="line"/>
      <point x="324" y="482" type="line"/>
      <point x="324" y="286" type="line"/>
      <point x="98" y="286" type="line"/>
      <point x="98" y="258" type="line"/>
      <point x="324" y="258" type="line"/>
      <point x="324" y="28" type="line"/>
      <point x="46" y="28" type="line"/>
      <point x="46" y="0" type="line"/>
    </contour>
  </outline>
</glyph>
<glyph name="Glottalstoplatin" format="1">
  <advance width="392"/>
  <outline>
    <contour>
      <point x="160" y="0" type="line"/>
      <point x="190" y="0" type="line"/>
      <point x="190" y="246" type="line"/>
      <point x="294" y="308"/>
      <point x="370" y="372"/>
      <point x="370" y="490" type="curve" smooth="yes"/>
      <point x="370" y="608"/>
      <point x="290" y="672"/>
      <point x="184" y="672" type="curve" smooth="yes"/>
      <point x="92" y="672"/>
      <point x="38" y="626"/>
      <point x="2" y="586" type="curve"/>
      <point x="22" y="564" type="line"/>
      <point x="56" y="604"/>
      <point x="104" y="644"/>
      <point x="186" y="644" type="curve" smooth="yes"/>
      <point x="284" y="644"/>
      <point x="338" y="582"/>
      <point x="338" y="492" type="curve" smooth="yes"/>
      <point x="338" y="392"/>
      <point x="278" y="330"/>
      <point x="160" y="268" type="curve"/>
    </contour>
  </outline>
</glyph>
<glyph name="Saltillo.sc" format="1">
  <advance width="248"/>
  <outline>
    <contour>
      <point x="112" y="172" type="line"/>
      <point x="136" y="172" type="line"/>
      <point x="140" y="448" type="line"/>
      <point x="140" y="510" type="line"/>
      <point x="108" y="510" type="line"/>
      <point x="108" y="448" type="line"/>
    </contour>
  </outline>
</glyph>
<glyph name="Upsilonlatin" format="1">
  <advance width="652"/>
  <outline>
    <contour>
      <point x="46" y="660" type="line"/>
      <point x="46" y="632" type="line"/>
      <point x="194" y="632" type="line"/>
      <point x="194" y="628" type="line"/>
      <point x="126" y="564"/>
      <point x="58" y="466"/>
      <point x="58" y="314" type="curve" smooth="yes"/>
      <point x="58" y="128"/>
      <point x="162" y="-12"/>
      <point x="326" y="-12" type="curve" smooth="yes"/>
      <point x="490" y="-12"/>
      <point x="594" y="128"/>
      <point x="594" y="314" type="curve" smooth="yes"/>
      <point x="594" y="466"/>
      <point x="526" y="564"/>
      <point x="458" y="628" type="curve"/>
      <point x="458" y="632" type="line"/>
      <point x="606" y="632" type="line"/>
      <point x="606" y="660" type="line"/>
      <point x="400" y="660" type="line"/>
      <point x="400" y="636" type="line"/>
      <point x="482" y="580"/>
      <point x="560" y="478"/>
      <point x="560" y="312" type="curve" smooth="yes"/>
      <point x="560" y="146"/>
      <point x="474" y="18"/>
      <point x="326" y="18" type="curve" smooth="yes"/>
      <point x="178" y="18"/>
      <point x="92" y="146"/>
      <point x="92" y="312" type="curve" smooth="yes"/>
      <point x="92" y="478"/>
      <point x="170" y="580"/>
      <point x="252" y="636" type="curve"/>
      <point x="252" y="660" type="line"/>
    </contour>
  </outline>
</glyph>
<glyph name="Upsilonlatin.sc" format="1">
  <advance width="560"/>
  <outline>
    <contour>
      <point x="44" y="510" type="line"/>
      <point x="44" y="484" type="line"/>
      <point x="167" y="484" type="line"/>
      <point x="167" y="481" type="line"/>
      <point x="111" y="432"/>
      <point x="54" y="358"/>
      <point x="54" y="243" type="curve" smooth="yes"/>
      <point x="54" y="100"/>
      <point x="142" y="-12"/>
      <point x="280" y="-12" type="curve" smooth="yes"/>
      <point x="419" y="-12"/>
      <point x="507" y="100"/>
      <point x="507" y="243" type="curve" smooth="yes"/>
      <point x="507" y="358"/>
      <point x="450" y="432"/>
      <point x="394" y="481" type="curve"/>
      <point x="394" y="484" type="line"/>
      <point x="517" y="484" type="line"/>
      <point x="517" y="510" type="line"/>
      <point x="341" y="510" type="line"/>
      <point x="341" y="487" type="line"/>
      <point x="410" y="444"/>
      <point x="474" y="367"/>
      <point x="474" y="242" type="curve" smooth="yes"/>
      <point x="474" y="117"/>
      <point x="403" y="16"/>
      <point x="280" y="16" type="curve" smooth="yes"/>
      <point x="158" y="16"/>
      <point x="87" y="117"/>
      <point x="87" y="242" type="curve" smooth="yes"/>
      <point x="87" y="367"/>
      <point x="151" y="444"/>
      <point x="219" y="487" type="curve"/>
      <point x="219" y="510" type="line"/>
    </contour>
  </outline>
</glyph>
<glyph name="acutecmb" format="1">
  <advance width="0"/>
  <outline>
    <contour>
<<<<<<< HEAD
      <point x="-34" y="574" type="line"/>
      <point x="104" y="724" type="line"/>
      <point x="80" y="744" type="line"/>
      <point x="-52" y="590" type="line"/>
=======
      <point x="-42" y="590" type="line"/>
      <point x="-24" y="574" type="line"/>
      <point x="94" y="724" type="line"/>
      <point x="70" y="744" type="line"/>
>>>>>>> bb3dd84... Updates the design of some mark glyphs. Removes some extra font.OTF file.
    </contour>
    <contour>
      <point x="0" y="502" type="move" name="_aboveLC"/>
    </contour>
  </outline>
</glyph>
<glyph name="brevecmb.cyr" format="1">
  <advance width="0"/>
  <outline>
    <contour>
      <point x="0" y="572" type="curve" smooth="yes"/>
      <point x="110" y="572"/>
      <point x="139" y="656"/>
      <point x="144" y="716" type="curve"/>
      <point x="114" y="716" type="line"/>
      <point x="112" y="658"/>
      <point x="85" y="596"/>
      <point x="0" y="596" type="curve" smooth="yes"/>
      <point x="-85" y="596"/>
      <point x="-112" y="658"/>
      <point x="-114" y="716" type="curve"/>
      <point x="-144" y="716" type="line"/>
      <point x="-139" y="656"/>
      <point x="-110" y="572"/>
    </contour>
    <contour>
      <point x="0" y="502" type="move" name="_aboveLC"/>
    </contour>
  </outline>
</glyph>
<glyph name="brevecmb" format="1">
  <advance width="0"/>
  <outline>
    <contour>
      <point x="0" y="570" type="curve" smooth="yes"/>
      <point x="101" y="570"/>
      <point x="138" y="654"/>
      <point x="146" y="716" type="curve"/>
      <point x="120" y="720" type="line"/>
      <point x="112" y="662"/>
      <point x="75" y="596"/>
      <point x="0" y="596" type="curve" smooth="yes"/>
      <point x="-75" y="596"/>
      <point x="-112" y="662"/>
      <point x="-120" y="720" type="curve"/>
      <point x="-146" y="716" type="line"/>
      <point x="-138" y="654"/>
      <point x="-101" y="570"/>
    </contour>
    <contour>
      <point x="0" y="502" type="move" name="_aboveLC"/>
    </contour>
  </outline>
</glyph>
<glyph name="brevegrave" format="1">
  <advance width="0"/>
  <outline>
    <contour>
      <point x="16" y="664" type="line"/>
      <point x="34" y="680" type="line"/>
      <point x="-48" y="790" type="line"/>
      <point x="-72" y="770" type="line"/>
    </contour>
    <contour>
      <point x="0" y="570" type="curve" smooth="yes"/>
      <point x="101" y="570"/>
      <point x="138" y="654"/>
      <point x="146" y="716" type="curve"/>
      <point x="120" y="720" type="line"/>
      <point x="112" y="662"/>
      <point x="75" y="596"/>
      <point x="0" y="596" type="curve" smooth="yes"/>
      <point x="-75" y="596"/>
      <point x="-112" y="662"/>
      <point x="-120" y="720" type="curve"/>
      <point x="-146" y="716" type="line"/>
      <point x="-138" y="654"/>
      <point x="-101" y="570"/>
    </contour>
    <contour>
      <point x="0" y="502" type="move" name="_aboveLC"/>
    </contour>
  </outline>
</glyph>
<glyph name="breveinvertedcmb.cap" format="1">
  <advance width="0"/>
  <outline>
    <contour>
      <point x="-106" y="712" type="line"/>
      <point x="-99" y="764"/>
      <point x="-67" y="812"/>
      <point x="0" y="812" type="curve" smooth="yes"/>
      <point x="67" y="812"/>
      <point x="99" y="764"/>
      <point x="106" y="712" type="curve"/>
      <point x="132" y="716" type="line"/>
      <point x="125" y="771"/>
      <point x="87" y="838"/>
      <point x="0" y="838" type="curve" smooth="yes"/>
      <point x="-87" y="838"/>
      <point x="-125" y="771"/>
      <point x="-132" y="716" type="curve"/>
    </contour>
    <contour>
      <point x="0" y="682" type="move" name="_aboveUC"/>
    </contour>
  </outline>
</glyph>
<glyph name="circumflexacute.cap" format="1">
  <advance width="0"/>
  <outline>
    <contour>
      <point x="-96" y="710" type="line"/>
      <point x="-2" y="778" type="line"/>
      <point x="2" y="778" type="line"/>
      <point x="96" y="710" type="line"/>
      <point x="110" y="726" type="line"/>
      <point x="14" y="808" type="line"/>
      <point x="-14" y="808" type="line"/>
      <point x="-110" y="726" type="line"/>
    </contour>
    <contour>
      <point x="96" y="766" type="line"/>
      <point x="196" y="860" type="line"/>
      <point x="172" y="882" type="line"/>
      <point x="78" y="784" type="line"/>
    </contour>
    <contour>
      <point x="0" y="682" type="move" name="_aboveUC"/>
    </contour>
  </outline>
</glyph>
<glyph name="circumflexacute" format="1">
  <advance width="0"/>
  <outline>
    <contour>
      <point x="-106" y="574" type="line"/>
      <point x="-2" y="652" type="line"/>
      <point x="2" y="652" type="line"/>
      <point x="106" y="574" type="line"/>
      <point x="120" y="592" type="line"/>
      <point x="14" y="684" type="line"/>
      <point x="-14" y="684" type="line"/>
      <point x="-120" y="592" type="line"/>
    </contour>
    <contour>
      <point x="82" y="652" type="line"/>
      <point x="100" y="636" type="line"/>
      <point x="200" y="746" type="line"/>
      <point x="176" y="766" type="line"/>
    </contour>
    <contour>
      <point x="0" y="502" type="move" name="_aboveLC"/>
    </contour>
  </outline>
</glyph>
<glyph name="circumflexbreve" format="1">
  <advance width="0"/>
  <outline>
    <contour>
      <point x="-106" y="574" type="line"/>
      <point x="-2" y="638" type="line"/>
      <point x="2" y="638" type="line"/>
      <point x="106" y="574" type="line"/>
      <point x="120" y="592" type="line"/>
      <point x="14" y="670" type="line"/>
      <point x="-14" y="670" type="line"/>
      <point x="-120" y="592" type="line"/>
    </contour>
    <contour>
      <point x="0" y="694" type="curve" smooth="yes"/>
      <point x="80" y="694"/>
      <point x="117" y="739"/>
      <point x="122" y="776" type="curve"/>
      <point x="96" y="780" type="line"/>
      <point x="91" y="748"/>
      <point x="61" y="720"/>
      <point x="0" y="720" type="curve" smooth="yes"/>
      <point x="-61" y="720"/>
      <point x="-91" y="748"/>
      <point x="-96" y="780" type="curve"/>
      <point x="-122" y="776" type="line"/>
      <point x="-117" y="739"/>
      <point x="-80" y="694"/>
    </contour>
    <contour>
      <point x="0" y="502" type="move" name="_aboveLC"/>
    </contour>
  </outline>
</glyph>
<glyph name="circumflexcmb" format="1">
  <advance width="0"/>
  <outline>
    <contour>
      <point x="-132" y="590" type="line"/>
      <point x="-114" y="574" type="line"/>
      <point x="-2" y="704" type="line"/>
      <point x="2" y="704" type="line"/>
      <point x="114" y="574" type="line"/>
      <point x="132" y="590" type="line"/>
      <point x="14" y="736" type="line"/>
      <point x="-14" y="736" type="line"/>
    </contour>
    <contour>
      <point x="0" y="502" type="move" name="_aboveLC"/>
    </contour>
    <contour>
      <point x="0" y="728" type="move" name="aboveLC"/>
    </contour>
  </outline>
</glyph>
<glyph name="dblgravecmb.cap" format="1">
  <advance width="0"/>
  <outline>
    <contour>
      <point x="-82" y="710" type="line"/>
      <point x="-62" y="720" type="line"/>
      <point x="-148" y="866" type="line"/>
      <point x="-174" y="850" type="line"/>
    </contour>
    <contour>
      <point x="56" y="710" type="line"/>
      <point x="76" y="720" type="line"/>
      <point x="-10" y="866" type="line"/>
      <point x="-36" y="850" type="line"/>
    </contour>
    <contour>
      <point x="0" y="682" type="move" name="_aboveUC"/>
    </contour>
  </outline>
</glyph>
<glyph name="dieresisbelowcmb" format="1">
  <advance width="0"/>
  <outline>
    <component base="dieresiscmb" yOffset="-790"/>
    <contour>
      <point x="0" y="-22" type="move" name="_belowLC"/>
    </contour>
  </outline>
</glyph>
<glyph name="dieresiscmb.cap" format="1">
  <advance width="0"/>
  <outline>
    <contour>
      <point x="-96" y="728" type="curve" smooth="yes"/>
      <point x="-78" y="728"/>
      <point x="-64" y="740"/>
      <point x="-64" y="760" type="curve" smooth="yes"/>
      <point x="-64" y="780"/>
      <point x="-78" y="792"/>
      <point x="-96" y="792" type="curve" smooth="yes"/>
      <point x="-114" y="792"/>
      <point x="-128" y="780"/>
      <point x="-128" y="760" type="curve" smooth="yes"/>
      <point x="-128" y="740"/>
      <point x="-114" y="728"/>
    </contour>
    <contour>
      <point x="96" y="728" type="curve" smooth="yes"/>
      <point x="114" y="728"/>
      <point x="128" y="740"/>
      <point x="128" y="760" type="curve" smooth="yes"/>
      <point x="128" y="780"/>
      <point x="114" y="792"/>
      <point x="96" y="792" type="curve" smooth="yes"/>
      <point x="78" y="792"/>
      <point x="64" y="780"/>
      <point x="64" y="760" type="curve" smooth="yes"/>
      <point x="64" y="740"/>
      <point x="78" y="728"/>
    </contour>
    <contour>
      <point x="0" y="682" type="move" name="_aboveUC"/>
    </contour>
  </outline>
</glyph>
<glyph name="leniscmb" format="1">
  <advance width="0"/>
  <outline>
<<<<<<< HEAD
    <component base="hoicmb"/>
=======
    <contour>
      <point x="-22" y="576" type="line"/>
      <point x="22" y="590"/>
      <point x="66" y="612"/>
      <point x="66" y="662" type="curve" smooth="yes"/>
      <point x="66" y="712"/>
      <point x="10" y="732"/>
      <point x="-48" y="734" type="curve"/>
      <point x="-50" y="708" type="line"/>
      <point x="4" y="706"/>
      <point x="36" y="690"/>
      <point x="36" y="658" type="curve" smooth="yes"/>
      <point x="36" y="628"/>
      <point x="8" y="612"/>
      <point x="-30" y="600" type="curve"/>
    </contour>
>>>>>>> bb3dd84... Updates the design of some mark glyphs. Removes some extra font.OTF file.
    <contour>
      <point x="0" y="502" type="move" name="_aboveLC"/>
    </contour>
  </outline>
</glyph>
<glyph name="macronacute.cap" format="1">
  <advance width="0"/>
  <outline>
    <contour>
      <point x="-8" y="822" type="line"/>
      <point x="92" y="916" type="line"/>
      <point x="70" y="936" type="line"/>
      <point x="-24" y="836" type="line"/>
    </contour>
    <contour>
      <point x="-120" y="746" type="line"/>
      <point x="120" y="746" type="line"/>
      <point x="120" y="774" type="line"/>
      <point x="-120" y="774" type="line"/>
    </contour>
    <contour>
      <point x="0" y="682" type="move" name="_aboveUC"/>
    </contour>
  </outline>
</glyph>
<glyph name="macronacute" format="1">
  <advance width="0"/>
  <outline>
    <contour>
      <point x="-38" y="698" type="line"/>
      <point x="92" y="786" type="line"/>
      <point x="70" y="814" type="line"/>
      <point x="-56" y="720" type="line"/>
    </contour>
    <contour>
      <point x="-120" y="608" type="line"/>
      <point x="120" y="608" type="line"/>
      <point x="120" y="636" type="line"/>
      <point x="-120" y="636" type="line"/>
    </contour>
    <contour>
      <point x="0" y="502" type="move" name="_aboveLC"/>
    </contour>
  </outline>
</glyph>
<glyph name="overlinecmb" format="1">
  <advance width="0"/>
  <outline>
<<<<<<< HEAD
    <component base="macroncmb"/>
=======
    <contour>
      <point x="-120" y="608" type="line"/>
      <point x="120" y="608" type="line"/>
      <point x="120" y="636" type="line"/>
      <point x="-120" y="636" type="line"/>
    </contour>
>>>>>>> bb3dd84... Updates the design of some mark glyphs. Removes some extra font.OTF file.
    <contour>
      <point x="0" y="502" type="move" name="_aboveLC"/>
    </contour>
  </outline>
</glyph>
<glyph name="seagullbelowcmb" format="1">
  <advance width="0"/>
  <outline>
    <contour>
<<<<<<< HEAD
      <point x="-152" y="-222" type="curve"/>
      <point x="-126" y="-224" type="line"/>
      <point x="-126" y="-131"/>
      <point x="-103" y="-108"/>
      <point x="-68" y="-108" type="curve" smooth="yes"/>
      <point x="-34.4827586207" y="-108.0"/>
      <point x="-14" y="-141.0"/>
=======
      <point x="-140" y="-222" type="curve"/>
      <point x="-114" y="-224" type="line"/>
      <point x="-114.0" y="-131.403508772"/>
      <point x="-93.0" y="-108.0"/>
      <point x="-62" y="-108" type="curve" smooth="yes"/>
      <point x="-32.0" y="-108.0"/>
      <point x="-14" y="-141"/>
>>>>>>> bb3dd84... Updates the design of some mark glyphs. Removes some extra font.OTF file.
      <point x="-14" y="-208" type="curve" smooth="yes"/>
      <point x="-14" y="-224" type="line"/>
      <point x="14" y="-224" type="line"/>
      <point x="14" y="-208" type="line" smooth="yes"/>
<<<<<<< HEAD
      <point x="14" y="-141.0"/>
      <point x="34.4827586207" y="-108.0"/>
      <point x="68" y="-108" type="curve" smooth="yes"/>
      <point x="103" y="-108"/>
      <point x="126" y="-131"/>
      <point x="126" y="-224" type="curve"/>
      <point x="152" y="-222" type="line"/>
      <point x="153" y="-121"/>
      <point x="120" y="-84"/>
      <point x="70" y="-84" type="curve" smooth="yes"/>
      <point x="37.8630136986" y="-84.0"/>
      <point x="9.02754851715" y="-98.8415960264"/>
      <point x="1" y="-145" type="curve"/>
      <point x="-1" y="-145" type="line"/>
      <point x="-9.02754851715" y="-98.8415960264"/>
      <point x="-37.8630136986" y="-84.0"/>
      <point x="-70" y="-84" type="curve" smooth="yes"/>
      <point x="-120" y="-84"/>
      <point x="-153" y="-121"/>
=======
      <point x="14" y="-141"/>
      <point x="32.0" y="-108.0"/>
      <point x="62" y="-108" type="curve" smooth="yes"/>
      <point x="93.0" y="-108.0"/>
      <point x="114.0" y="-131.403508772"/>
      <point x="114" y="-224" type="curve"/>
      <point x="140" y="-222" type="line"/>
      <point x="141.014704423" y="-120.529557743"/>
      <point x="110.0" y="-84.0"/>
      <point x="64" y="-84" type="curve" smooth="yes"/>
      <point x="35.0" y="-84.0"/>
      <point x="8.7707394713" y="-99.238978669"/>
      <point x="1" y="-145" type="curve"/>
      <point x="-1" y="-145" type="line"/>
      <point x="-8.7707394713" y="-99.238978669"/>
      <point x="-35.0" y="-84.0"/>
      <point x="-64" y="-84" type="curve" smooth="yes"/>
      <point x="-110.0" y="-84.0"/>
      <point x="-141.014704423" y="-120.529557743"/>
>>>>>>> bb3dd84... Updates the design of some mark glyphs. Removes some extra font.OTF file.
    </contour>
    <contour>
      <point x="0" y="-22" type="move" name="_belowLC"/>
    </contour>
  </outline>
</glyph>
